<mxfile host="app.diagrams.net" modified="2021-10-27T13:32:02.326Z" agent="5.0 (Windows NT 10.0; WOW64) AppleWebKit/537.36 (KHTML, like Gecko) Chrome/80.0.3987.132 YaBrowser/20.3.1.253 Yowser/2.5 Safari/537.36" etag="Gla4VasNwf1YySvr0Pk1" version="15.5.9" type="github">
  <diagram id="C5RBs43oDa-KdzZeNtuy" name="Page-1">
    <mxGraphModel dx="3371" dy="1022" grid="1" gridSize="10" guides="1" tooltips="1" connect="1" arrows="1" fold="1" page="1" pageScale="1" pageWidth="827" pageHeight="1169" math="0" shadow="0">
      <root>
        <mxCell id="WIyWlLk6GJQsqaUBKTNV-0" />
        <mxCell id="WIyWlLk6GJQsqaUBKTNV-1" parent="WIyWlLk6GJQsqaUBKTNV-0" />
        <mxCell id="H7vkgc4rldZ32Lxg7ZXF-4" value="" style="rounded=0;whiteSpace=wrap;html=1;fillColor=none;dashed=1;strokeWidth=1;perimeterSpacing=1;strokeColor=#000000;" vertex="1" parent="WIyWlLk6GJQsqaUBKTNV-1">
          <mxGeometry x="361" y="365.82" width="119" height="194.18" as="geometry" />
        </mxCell>
        <mxCell id="H7vkgc4rldZ32Lxg7ZXF-5" value="" style="rounded=0;whiteSpace=wrap;html=1;fillColor=none;dashed=1;strokeWidth=1;perimeterSpacing=1;strokeColor=#000000;" vertex="1" parent="WIyWlLk6GJQsqaUBKTNV-1">
          <mxGeometry x="480" y="365.82" width="119" height="194.18" as="geometry" />
        </mxCell>
        <mxCell id="5QetswFkg2Cd5uMD2sd_-127" value="" style="rounded=0;whiteSpace=wrap;html=1;fillColor=none;dashed=1;strokeWidth=1;perimeterSpacing=1;strokeColor=#000000;" parent="WIyWlLk6GJQsqaUBKTNV-1" vertex="1">
          <mxGeometry x="-779" y="546.5" width="119" height="110" as="geometry" />
        </mxCell>
        <mxCell id="5QetswFkg2Cd5uMD2sd_-2" value="" style="rounded=0;whiteSpace=wrap;html=1;fillColor=none;dashed=1;strokeWidth=2;perimeterSpacing=1;strokeColor=#00CC00;" parent="WIyWlLk6GJQsqaUBKTNV-1" vertex="1">
          <mxGeometry x="-320" y="351" width="930" height="569" as="geometry" />
        </mxCell>
        <mxCell id="5QetswFkg2Cd5uMD2sd_-75" value="" style="rounded=0;whiteSpace=wrap;html=1;fillColor=none;dashed=1;strokeWidth=1;perimeterSpacing=1;strokeColor=#000000;" parent="WIyWlLk6GJQsqaUBKTNV-1" vertex="1">
          <mxGeometry x="355.45" y="360" width="244.55" height="300" as="geometry" />
        </mxCell>
        <mxCell id="5QetswFkg2Cd5uMD2sd_-124" value="" style="rounded=0;whiteSpace=wrap;html=1;fillColor=none;dashed=1;strokeWidth=1;perimeterSpacing=1;strokeColor=#000000;" parent="WIyWlLk6GJQsqaUBKTNV-1" vertex="1">
          <mxGeometry x="-239" y="730" width="550" height="160" as="geometry" />
        </mxCell>
        <mxCell id="5QetswFkg2Cd5uMD2sd_-123" value="" style="rounded=0;whiteSpace=wrap;html=1;fillColor=none;dashed=1;strokeWidth=1;perimeterSpacing=1;strokeColor=#000000;" parent="WIyWlLk6GJQsqaUBKTNV-1" vertex="1">
          <mxGeometry x="-240" y="360" width="550" height="320" as="geometry" />
        </mxCell>
        <mxCell id="H7vkgc4rldZ32Lxg7ZXF-64" style="edgeStyle=orthogonalEdgeStyle;rounded=0;orthogonalLoop=1;jettySize=auto;html=1;exitX=0;exitY=0.5;exitDx=0;exitDy=0;strokeColor=#000000;" edge="1" parent="WIyWlLk6GJQsqaUBKTNV-1" source="5QetswFkg2Cd5uMD2sd_-97" target="H7vkgc4rldZ32Lxg7ZXF-38">
          <mxGeometry relative="1" as="geometry" />
        </mxCell>
        <mxCell id="5QetswFkg2Cd5uMD2sd_-97" value="" style="rounded=0;whiteSpace=wrap;html=1;fillColor=none;dashed=1;strokeWidth=1;perimeterSpacing=1;strokeColor=#000000;" parent="WIyWlLk6GJQsqaUBKTNV-1" vertex="1">
          <mxGeometry x="-209.5" y="550" width="119" height="110" as="geometry" />
        </mxCell>
        <mxCell id="5QetswFkg2Cd5uMD2sd_-0" value="" style="rounded=0;whiteSpace=wrap;html=1;fillColor=none;dashed=1;strokeWidth=2;perimeterSpacing=1;strokeColor=#FF0000;" parent="WIyWlLk6GJQsqaUBKTNV-1" vertex="1">
          <mxGeometry x="-320" y="30" width="730" height="240" as="geometry" />
        </mxCell>
        <mxCell id="5QetswFkg2Cd5uMD2sd_-38" style="edgeStyle=orthogonalEdgeStyle;rounded=1;orthogonalLoop=1;jettySize=auto;html=1;startArrow=none;startFill=0;endArrow=classic;endFill=1;strokeWidth=1;" parent="WIyWlLk6GJQsqaUBKTNV-1" source="5QetswFkg2Cd5uMD2sd_-12" target="5QetswFkg2Cd5uMD2sd_-13" edge="1">
          <mxGeometry relative="1" as="geometry" />
        </mxCell>
        <mxCell id="5QetswFkg2Cd5uMD2sd_-3" value="" style="rounded=0;whiteSpace=wrap;html=1;fillColor=none;dashed=1;strokeWidth=1;perimeterSpacing=1;strokeColor=#000000;" parent="WIyWlLk6GJQsqaUBKTNV-1" vertex="1">
          <mxGeometry x="-220.5" y="120" width="119" height="110" as="geometry" />
        </mxCell>
        <mxCell id="5QetswFkg2Cd5uMD2sd_-35" style="edgeStyle=orthogonalEdgeStyle;rounded=1;orthogonalLoop=1;jettySize=auto;html=1;strokeWidth=1;" parent="WIyWlLk6GJQsqaUBKTNV-1" target="5QetswFkg2Cd5uMD2sd_-20" edge="1">
          <mxGeometry relative="1" as="geometry">
            <mxPoint x="10" y="148" as="sourcePoint" />
            <Array as="points">
              <mxPoint x="10" y="150" />
              <mxPoint x="10" y="80" />
              <mxPoint x="325" y="80" />
            </Array>
          </mxGeometry>
        </mxCell>
        <mxCell id="5QetswFkg2Cd5uMD2sd_-5" value="" style="rounded=0;whiteSpace=wrap;html=1;fillColor=none;dashed=1;strokeWidth=1;perimeterSpacing=1;strokeColor=#000000;" parent="WIyWlLk6GJQsqaUBKTNV-1" vertex="1">
          <mxGeometry x="-40.5" y="120" width="119" height="110" as="geometry" />
        </mxCell>
        <mxCell id="5QetswFkg2Cd5uMD2sd_-6" value="" style="rounded=0;whiteSpace=wrap;html=1;fillColor=none;dashed=1;strokeWidth=1;perimeterSpacing=1;strokeColor=#000000;" parent="WIyWlLk6GJQsqaUBKTNV-1" vertex="1">
          <mxGeometry x="140.5" y="120" width="119" height="110" as="geometry" />
        </mxCell>
        <mxCell id="5QetswFkg2Cd5uMD2sd_-7" value="" style="rounded=0;whiteSpace=wrap;html=1;fillColor=none;dashed=1;strokeWidth=1;perimeterSpacing=1;strokeColor=#000000;" parent="WIyWlLk6GJQsqaUBKTNV-1" vertex="1">
          <mxGeometry x="271" y="120" width="119" height="110" as="geometry" />
        </mxCell>
        <mxCell id="5QetswFkg2Cd5uMD2sd_-8" value="Процессинг ДПК (ООО &quot;Радуга карт&quot;)" style="text;html=1;strokeColor=none;fillColor=none;align=center;verticalAlign=middle;whiteSpace=wrap;rounded=0;dashed=1;" parent="WIyWlLk6GJQsqaUBKTNV-1" vertex="1">
          <mxGeometry x="-80" y="40" width="320" height="20" as="geometry" />
        </mxCell>
        <mxCell id="5QetswFkg2Cd5uMD2sd_-36" style="edgeStyle=orthogonalEdgeStyle;rounded=1;orthogonalLoop=1;jettySize=auto;html=1;strokeWidth=1;startArrow=classic;startFill=1;endArrow=none;endFill=0;" parent="WIyWlLk6GJQsqaUBKTNV-1" source="5QetswFkg2Cd5uMD2sd_-11" edge="1">
          <mxGeometry relative="1" as="geometry">
            <mxPoint x="42" y="178" as="targetPoint" />
          </mxGeometry>
        </mxCell>
        <mxCell id="5QetswFkg2Cd5uMD2sd_-12" value="" style="pointerEvents=1;shadow=0;dashed=0;html=1;strokeColor=none;fillColor=#505050;labelPosition=center;verticalLabelPosition=bottom;verticalAlign=top;outlineConnect=0;align=center;shape=mxgraph.office.servers.web_server;" parent="WIyWlLk6GJQsqaUBKTNV-1" vertex="1">
          <mxGeometry x="-185" y="150" width="48" height="57" as="geometry" />
        </mxCell>
        <mxCell id="5QetswFkg2Cd5uMD2sd_-39" style="edgeStyle=orthogonalEdgeStyle;rounded=1;orthogonalLoop=1;jettySize=auto;html=1;startArrow=none;startFill=0;endArrow=classic;endFill=1;strokeWidth=1;" parent="WIyWlLk6GJQsqaUBKTNV-1" source="5QetswFkg2Cd5uMD2sd_-14" target="5QetswFkg2Cd5uMD2sd_-12" edge="1">
          <mxGeometry relative="1" as="geometry">
            <Array as="points">
              <mxPoint x="-407" y="179" />
            </Array>
          </mxGeometry>
        </mxCell>
        <mxCell id="5QetswFkg2Cd5uMD2sd_-131" value="HTTP/80" style="text;html=1;align=center;verticalAlign=middle;resizable=0;points=[];labelBackgroundColor=#ffffff;fontSize=9;" parent="5QetswFkg2Cd5uMD2sd_-39" vertex="1" connectable="0">
          <mxGeometry x="-0.2569" y="1" relative="1" as="geometry">
            <mxPoint x="1.07" y="109.54" as="offset" />
          </mxGeometry>
        </mxCell>
        <mxCell id="5QetswFkg2Cd5uMD2sd_-89" style="edgeStyle=orthogonalEdgeStyle;rounded=1;orthogonalLoop=1;jettySize=auto;html=1;startArrow=none;startFill=0;endArrow=classic;endFill=1;strokeWidth=1;" parent="WIyWlLk6GJQsqaUBKTNV-1" source="5QetswFkg2Cd5uMD2sd_-14" target="5QetswFkg2Cd5uMD2sd_-72" edge="1">
          <mxGeometry relative="1" as="geometry">
            <Array as="points">
              <mxPoint x="-407" y="530" />
              <mxPoint x="-800" y="530" />
              <mxPoint x="-800" y="830" />
            </Array>
          </mxGeometry>
        </mxCell>
        <mxCell id="5QetswFkg2Cd5uMD2sd_-133" value="POP3/110" style="text;html=1;align=center;verticalAlign=middle;resizable=0;points=[];labelBackgroundColor=#ffffff;fontSize=9;" parent="5QetswFkg2Cd5uMD2sd_-89" vertex="1" connectable="0">
          <mxGeometry x="-0.0152" y="3" relative="1" as="geometry">
            <mxPoint x="180.5" y="-28.11" as="offset" />
          </mxGeometry>
        </mxCell>
        <mxCell id="5QetswFkg2Cd5uMD2sd_-90" style="edgeStyle=orthogonalEdgeStyle;rounded=1;orthogonalLoop=1;jettySize=auto;html=1;startArrow=none;startFill=0;endArrow=classic;endFill=1;strokeWidth=1;" parent="WIyWlLk6GJQsqaUBKTNV-1" source="5QetswFkg2Cd5uMD2sd_-14" edge="1">
          <mxGeometry relative="1" as="geometry">
            <mxPoint x="-503.42857142857144" y="580" as="targetPoint" />
            <Array as="points">
              <mxPoint x="-370" y="444" />
              <mxPoint x="-370" y="550" />
              <mxPoint x="-503" y="550" />
            </Array>
          </mxGeometry>
        </mxCell>
        <mxCell id="5QetswFkg2Cd5uMD2sd_-132" value="HTTP/80" style="text;html=1;align=center;verticalAlign=middle;resizable=0;points=[];labelBackgroundColor=#ffffff;fontSize=9;" parent="5QetswFkg2Cd5uMD2sd_-90" vertex="1" connectable="0">
          <mxGeometry x="-0.7446" y="3" relative="1" as="geometry">
            <mxPoint x="26.43" y="-0.5" as="offset" />
          </mxGeometry>
        </mxCell>
        <mxCell id="5QetswFkg2Cd5uMD2sd_-14" value="" style="pointerEvents=1;shadow=0;dashed=0;html=1;strokeColor=none;fillColor=#505050;labelPosition=center;verticalLabelPosition=bottom;verticalAlign=top;outlineConnect=0;align=center;shape=mxgraph.office.devices.cell_phone_iphone_standalone;" parent="WIyWlLk6GJQsqaUBKTNV-1" vertex="1">
          <mxGeometry x="-420" y="423.32" width="25" height="42" as="geometry" />
        </mxCell>
        <mxCell id="5QetswFkg2Cd5uMD2sd_-22" value="" style="group" parent="WIyWlLk6GJQsqaUBKTNV-1" vertex="1" connectable="0">
          <mxGeometry x="311" y="148" width="50" height="59" as="geometry" />
        </mxCell>
        <mxCell id="5QetswFkg2Cd5uMD2sd_-20" value="" style="pointerEvents=1;shadow=0;dashed=0;html=1;strokeColor=none;fillColor=#505050;labelPosition=center;verticalLabelPosition=bottom;verticalAlign=top;outlineConnect=0;align=center;shape=mxgraph.office.servers.server_generic;" parent="5QetswFkg2Cd5uMD2sd_-22" vertex="1">
          <mxGeometry width="27" height="52" as="geometry" />
        </mxCell>
        <mxCell id="5QetswFkg2Cd5uMD2sd_-21" value="" style="pointerEvents=1;shadow=0;dashed=0;html=1;strokeColor=none;fillColor=#FF0000;labelPosition=center;verticalLabelPosition=bottom;verticalAlign=top;outlineConnect=0;align=center;shape=mxgraph.office.security.management_role;" parent="5QetswFkg2Cd5uMD2sd_-22" vertex="1">
          <mxGeometry x="20" y="29" width="30" height="30" as="geometry" />
        </mxCell>
        <mxCell id="5QetswFkg2Cd5uMD2sd_-23" value="&lt;font style=&quot;font-size: 9px&quot;&gt;Граница сети&lt;br&gt;ООО &quot;Радуга карт&quot;&lt;/font&gt;" style="text;html=1;strokeColor=none;fillColor=none;align=center;verticalAlign=middle;whiteSpace=wrap;rounded=0;dashed=1;" parent="WIyWlLk6GJQsqaUBKTNV-1" vertex="1">
          <mxGeometry x="-350" y="260" width="150" height="40" as="geometry" />
        </mxCell>
        <mxCell id="5QetswFkg2Cd5uMD2sd_-24" value="&lt;font style=&quot;font-size: 9px&quot;&gt;Граница сети Банка&lt;br&gt;&lt;/font&gt;" style="text;html=1;strokeColor=none;fillColor=none;align=center;verticalAlign=middle;whiteSpace=wrap;rounded=0;dashed=1;" parent="WIyWlLk6GJQsqaUBKTNV-1" vertex="1">
          <mxGeometry x="-350" y="320" width="161" height="40" as="geometry" />
        </mxCell>
        <mxCell id="5QetswFkg2Cd5uMD2sd_-25" value="&lt;font style=&quot;font-size: 10px&quot;&gt;&lt;b&gt;DMZ&lt;/b&gt;&lt;/font&gt;" style="text;html=1;strokeColor=none;fillColor=none;align=center;verticalAlign=middle;whiteSpace=wrap;rounded=0;dashed=1;" parent="WIyWlLk6GJQsqaUBKTNV-1" vertex="1">
          <mxGeometry x="-221.5" y="120" width="41.5" height="20" as="geometry" />
        </mxCell>
        <mxCell id="5QetswFkg2Cd5uMD2sd_-28" value="&lt;font style=&quot;font-size: 10px&quot;&gt;&lt;b&gt;APP&lt;/b&gt;&lt;/font&gt;" style="text;html=1;strokeColor=none;fillColor=none;align=center;verticalAlign=middle;whiteSpace=wrap;rounded=0;dashed=1;" parent="WIyWlLk6GJQsqaUBKTNV-1" vertex="1">
          <mxGeometry x="-41.5" y="120" width="41.5" height="20" as="geometry" />
        </mxCell>
        <mxCell id="5QetswFkg2Cd5uMD2sd_-29" value="&lt;font style=&quot;font-size: 10px&quot;&gt;&lt;b&gt;DB&lt;/b&gt;&lt;/font&gt;" style="text;html=1;strokeColor=none;fillColor=none;align=center;verticalAlign=middle;whiteSpace=wrap;rounded=0;dashed=1;" parent="WIyWlLk6GJQsqaUBKTNV-1" vertex="1">
          <mxGeometry x="140" y="120" width="30" height="20" as="geometry" />
        </mxCell>
        <mxCell id="5QetswFkg2Cd5uMD2sd_-30" value="&lt;font style=&quot;font-size: 10px&quot;&gt;&lt;b&gt;HSM&lt;/b&gt;&lt;/font&gt;" style="text;html=1;strokeColor=none;fillColor=none;align=center;verticalAlign=middle;whiteSpace=wrap;rounded=0;dashed=1;" parent="WIyWlLk6GJQsqaUBKTNV-1" vertex="1">
          <mxGeometry x="270.5" y="120" width="39.5" height="20" as="geometry" />
        </mxCell>
        <mxCell id="5QetswFkg2Cd5uMD2sd_-31" value="&lt;span style=&quot;font-size: 10px&quot;&gt;прокси-сервер&lt;/span&gt;" style="text;html=1;strokeColor=none;fillColor=none;align=center;verticalAlign=middle;whiteSpace=wrap;rounded=0;dashed=1;" parent="WIyWlLk6GJQsqaUBKTNV-1" vertex="1">
          <mxGeometry x="-220.5" y="210" width="120" height="20" as="geometry" />
        </mxCell>
        <mxCell id="5QetswFkg2Cd5uMD2sd_-32" value="&lt;span style=&quot;font-size: 10px&quot;&gt;java-приложение&lt;/span&gt;" style="text;html=1;strokeColor=none;fillColor=none;align=center;verticalAlign=middle;whiteSpace=wrap;rounded=0;dashed=1;" parent="WIyWlLk6GJQsqaUBKTNV-1" vertex="1">
          <mxGeometry x="-40.5" y="210" width="120" height="20" as="geometry" />
        </mxCell>
        <mxCell id="5QetswFkg2Cd5uMD2sd_-33" value="&lt;span style=&quot;font-size: 10px&quot;&gt;БД с ДПК, токенами карт&lt;/span&gt;" style="text;html=1;strokeColor=none;fillColor=none;align=center;verticalAlign=middle;whiteSpace=wrap;rounded=0;dashed=1;" parent="WIyWlLk6GJQsqaUBKTNV-1" vertex="1">
          <mxGeometry x="140.5" y="210" width="120" height="20" as="geometry" />
        </mxCell>
        <mxCell id="5QetswFkg2Cd5uMD2sd_-34" value="&lt;span style=&quot;font-size: 10px&quot;&gt;HSM с криптоключами&lt;/span&gt;" style="text;html=1;strokeColor=none;fillColor=none;align=center;verticalAlign=middle;whiteSpace=wrap;rounded=0;dashed=1;" parent="WIyWlLk6GJQsqaUBKTNV-1" vertex="1">
          <mxGeometry x="270" y="210" width="120" height="20" as="geometry" />
        </mxCell>
        <mxCell id="5QetswFkg2Cd5uMD2sd_-13" value="" style="pointerEvents=1;shadow=0;dashed=0;html=1;strokeColor=none;fillColor=#505050;labelPosition=center;verticalLabelPosition=bottom;verticalAlign=top;outlineConnect=0;align=center;shape=mxgraph.office.servers.application_server;" parent="WIyWlLk6GJQsqaUBKTNV-1" vertex="1">
          <mxGeometry x="-4" y="150" width="46" height="56" as="geometry" />
        </mxCell>
        <mxCell id="5QetswFkg2Cd5uMD2sd_-41" style="edgeStyle=orthogonalEdgeStyle;rounded=1;orthogonalLoop=1;jettySize=auto;html=1;startArrow=none;startFill=0;endArrow=classic;endFill=1;strokeWidth=1;dashed=1;" parent="WIyWlLk6GJQsqaUBKTNV-1" source="5QetswFkg2Cd5uMD2sd_-135" target="5QetswFkg2Cd5uMD2sd_-14" edge="1">
          <mxGeometry relative="1" as="geometry">
            <mxPoint x="-470.0000000000002" y="444.3199999999997" as="sourcePoint" />
          </mxGeometry>
        </mxCell>
        <mxCell id="5QetswFkg2Cd5uMD2sd_-42" value="" style="rounded=0;whiteSpace=wrap;html=1;fillColor=none;dashed=1;strokeWidth=1;perimeterSpacing=1;strokeColor=#000000;" parent="WIyWlLk6GJQsqaUBKTNV-1" vertex="1">
          <mxGeometry x="155.25" y="385.82" width="119" height="110" as="geometry" />
        </mxCell>
        <mxCell id="5QetswFkg2Cd5uMD2sd_-91" style="edgeStyle=orthogonalEdgeStyle;rounded=1;orthogonalLoop=1;jettySize=auto;html=1;startArrow=classic;startFill=1;endArrow=none;endFill=0;strokeWidth=1;" parent="WIyWlLk6GJQsqaUBKTNV-1" source="5QetswFkg2Cd5uMD2sd_-43" target="5QetswFkg2Cd5uMD2sd_-47" edge="1">
          <mxGeometry relative="1" as="geometry" />
        </mxCell>
        <mxCell id="5QetswFkg2Cd5uMD2sd_-143" value="SQLNet/1525" style="text;html=1;align=center;verticalAlign=middle;resizable=0;points=[];labelBackgroundColor=#ffffff;fontSize=9;" parent="5QetswFkg2Cd5uMD2sd_-91" vertex="1" connectable="0">
          <mxGeometry x="-0.4036" y="-1" relative="1" as="geometry">
            <mxPoint as="offset" />
          </mxGeometry>
        </mxCell>
        <mxCell id="5QetswFkg2Cd5uMD2sd_-92" style="edgeStyle=orthogonalEdgeStyle;rounded=1;orthogonalLoop=1;jettySize=auto;html=1;startArrow=none;startFill=0;endArrow=classic;endFill=1;strokeWidth=1;" parent="WIyWlLk6GJQsqaUBKTNV-1" source="H7vkgc4rldZ32Lxg7ZXF-67" target="5QetswFkg2Cd5uMD2sd_-12" edge="1">
          <mxGeometry relative="1" as="geometry">
            <Array as="points">
              <mxPoint x="-161" y="310" />
            </Array>
            <mxPoint x="-104.55000000000018" y="280.0000000000001" as="sourcePoint" />
          </mxGeometry>
        </mxCell>
        <mxCell id="5QetswFkg2Cd5uMD2sd_-150" value="RSync/873&lt;br&gt;Передача токенов карт" style="text;html=1;align=center;verticalAlign=middle;resizable=0;points=[];labelBackgroundColor=#ffffff;fontSize=9;" parent="5QetswFkg2Cd5uMD2sd_-92" vertex="1" connectable="0">
          <mxGeometry x="0.4068" y="-1" relative="1" as="geometry">
            <mxPoint x="-1" y="-50" as="offset" />
          </mxGeometry>
        </mxCell>
        <mxCell id="H7vkgc4rldZ32Lxg7ZXF-69" style="edgeStyle=orthogonalEdgeStyle;rounded=0;orthogonalLoop=1;jettySize=auto;html=1;strokeColor=#000000;" edge="1" parent="WIyWlLk6GJQsqaUBKTNV-1" source="5QetswFkg2Cd5uMD2sd_-43" target="H7vkgc4rldZ32Lxg7ZXF-68">
          <mxGeometry relative="1" as="geometry" />
        </mxCell>
        <mxCell id="5QetswFkg2Cd5uMD2sd_-43" value="" style="shadow=0;dashed=0;html=1;strokeColor=none;fillColor=#505050;labelPosition=center;verticalLabelPosition=bottom;verticalAlign=top;outlineConnect=0;align=center;shape=mxgraph.office.databases.database_mini_3;" parent="WIyWlLk6GJQsqaUBKTNV-1" vertex="1">
          <mxGeometry x="197.25" y="415.82" width="35" height="57" as="geometry" />
        </mxCell>
        <mxCell id="5QetswFkg2Cd5uMD2sd_-44" value="&lt;font style=&quot;font-size: 10px&quot;&gt;&lt;b&gt;DB&lt;/b&gt; 192.168.13.0/24&lt;/font&gt;" style="text;html=1;strokeColor=none;fillColor=none;align=center;verticalAlign=middle;whiteSpace=wrap;rounded=0;dashed=1;" parent="WIyWlLk6GJQsqaUBKTNV-1" vertex="1">
          <mxGeometry x="154.75" y="385.82" width="120" height="20" as="geometry" />
        </mxCell>
        <mxCell id="H7vkgc4rldZ32Lxg7ZXF-24" style="edgeStyle=orthogonalEdgeStyle;rounded=0;orthogonalLoop=1;jettySize=auto;html=1;exitX=0.5;exitY=0;exitDx=0;exitDy=0;entryX=0.395;entryY=1.038;entryDx=0;entryDy=0;entryPerimeter=0;" edge="1" parent="WIyWlLk6GJQsqaUBKTNV-1" source="5QetswFkg2Cd5uMD2sd_-45" target="5QetswFkg2Cd5uMD2sd_-124">
          <mxGeometry relative="1" as="geometry">
            <Array as="points">
              <mxPoint x="215" y="897" />
            </Array>
          </mxGeometry>
        </mxCell>
        <mxCell id="5QetswFkg2Cd5uMD2sd_-45" value="&lt;span style=&quot;font-size: 10px&quot;&gt;БД с ДПК, токенами карт&lt;/span&gt;" style="text;html=1;strokeColor=none;fillColor=none;align=center;verticalAlign=middle;whiteSpace=wrap;rounded=0;dashed=1;" parent="WIyWlLk6GJQsqaUBKTNV-1" vertex="1">
          <mxGeometry x="155.25" y="475.82" width="120" height="20" as="geometry" />
        </mxCell>
        <mxCell id="5QetswFkg2Cd5uMD2sd_-46" value="" style="rounded=0;whiteSpace=wrap;html=1;fillColor=none;dashed=1;strokeWidth=1;perimeterSpacing=1;strokeColor=#000000;" parent="WIyWlLk6GJQsqaUBKTNV-1" vertex="1">
          <mxGeometry x="-209" y="385.82" width="119" height="110" as="geometry" />
        </mxCell>
        <mxCell id="5QetswFkg2Cd5uMD2sd_-47" value="" style="pointerEvents=1;shadow=0;dashed=0;html=1;strokeColor=none;fillColor=#505050;labelPosition=center;verticalLabelPosition=bottom;verticalAlign=top;outlineConnect=0;align=center;shape=mxgraph.office.servers.web_server;" parent="WIyWlLk6GJQsqaUBKTNV-1" vertex="1">
          <mxGeometry x="-173.5" y="415.82" width="48" height="57" as="geometry" />
        </mxCell>
        <mxCell id="5QetswFkg2Cd5uMD2sd_-48" value="&lt;font style=&quot;font-size: 10px&quot;&gt;&lt;b&gt;DMZ&lt;/b&gt; 192.168.11.0/24&lt;/font&gt;" style="text;html=1;strokeColor=none;fillColor=none;align=center;verticalAlign=middle;whiteSpace=wrap;rounded=0;dashed=1;" parent="WIyWlLk6GJQsqaUBKTNV-1" vertex="1">
          <mxGeometry x="-210" y="385.82" width="120" height="20" as="geometry" />
        </mxCell>
        <mxCell id="5QetswFkg2Cd5uMD2sd_-49" value="&lt;span style=&quot;font-size: 10px&quot;&gt;веб-сервер&lt;/span&gt;" style="text;html=1;strokeColor=none;fillColor=none;align=center;verticalAlign=middle;whiteSpace=wrap;rounded=0;dashed=1;" parent="WIyWlLk6GJQsqaUBKTNV-1" vertex="1">
          <mxGeometry x="-209" y="475.82" width="120" height="20" as="geometry" />
        </mxCell>
        <mxCell id="5QetswFkg2Cd5uMD2sd_-50" value="" style="rounded=0;whiteSpace=wrap;html=1;fillColor=none;dashed=1;strokeWidth=1;perimeterSpacing=1;strokeColor=#000000;" parent="WIyWlLk6GJQsqaUBKTNV-1" vertex="1">
          <mxGeometry x="-207" y="755" width="119" height="110" as="geometry" />
        </mxCell>
        <mxCell id="5QetswFkg2Cd5uMD2sd_-52" value="&lt;font style=&quot;font-size: 10px&quot;&gt;&lt;b&gt;DMZ&lt;/b&gt; 192.168.101.0/24&lt;/font&gt;" style="text;html=1;strokeColor=none;fillColor=none;align=center;verticalAlign=middle;whiteSpace=wrap;rounded=0;dashed=1;" parent="WIyWlLk6GJQsqaUBKTNV-1" vertex="1">
          <mxGeometry x="-208" y="755" width="120" height="20" as="geometry" />
        </mxCell>
        <mxCell id="5QetswFkg2Cd5uMD2sd_-53" value="&lt;span style=&quot;font-size: 10px&quot;&gt;почтовый релей&lt;/span&gt;" style="text;html=1;strokeColor=none;fillColor=none;align=center;verticalAlign=middle;whiteSpace=wrap;rounded=0;dashed=1;" parent="WIyWlLk6GJQsqaUBKTNV-1" vertex="1">
          <mxGeometry x="-207" y="845" width="120" height="20" as="geometry" />
        </mxCell>
        <mxCell id="5QetswFkg2Cd5uMD2sd_-63" value="" style="group" parent="WIyWlLk6GJQsqaUBKTNV-1" vertex="1" connectable="0">
          <mxGeometry x="182.5" y="150" width="48.02999999999997" height="57" as="geometry" />
        </mxCell>
        <mxCell id="5QetswFkg2Cd5uMD2sd_-11" value="" style="shadow=0;dashed=0;html=1;strokeColor=none;fillColor=#505050;labelPosition=center;verticalLabelPosition=bottom;verticalAlign=top;outlineConnect=0;align=center;shape=mxgraph.office.databases.database_mini_3;" parent="5QetswFkg2Cd5uMD2sd_-63" vertex="1">
          <mxGeometry width="35" height="57" as="geometry" />
        </mxCell>
        <mxCell id="5QetswFkg2Cd5uMD2sd_-60" value="" style="pointerEvents=1;shadow=0;dashed=0;html=1;strokeColor=none;fillColor=#FF0000;labelPosition=center;verticalLabelPosition=bottom;verticalAlign=top;outlineConnect=0;align=center;shape=mxgraph.office.concepts.credit_card;" parent="5QetswFkg2Cd5uMD2sd_-63" vertex="1">
          <mxGeometry x="20" y="30" width="28.03" height="18.35" as="geometry" />
        </mxCell>
        <mxCell id="5QetswFkg2Cd5uMD2sd_-66" value="" style="pointerEvents=1;shadow=0;dashed=0;html=1;strokeColor=none;fillColor=#505050;labelPosition=center;verticalLabelPosition=bottom;verticalAlign=top;outlineConnect=0;align=center;shape=mxgraph.office.servers.exchange_mailbox_server;labelBackgroundColor=none;" parent="WIyWlLk6GJQsqaUBKTNV-1" vertex="1">
          <mxGeometry x="-170.5" y="786" width="57" height="59" as="geometry" />
        </mxCell>
        <mxCell id="5QetswFkg2Cd5uMD2sd_-68" value="" style="rounded=0;whiteSpace=wrap;html=1;fillColor=none;dashed=1;strokeWidth=1;perimeterSpacing=1;strokeColor=#000000;" parent="WIyWlLk6GJQsqaUBKTNV-1" vertex="1">
          <mxGeometry x="-36.5" y="755" width="119" height="110" as="geometry" />
        </mxCell>
        <mxCell id="5QetswFkg2Cd5uMD2sd_-69" value="&lt;font style=&quot;font-size: 10px&quot;&gt;&lt;b&gt;APP&lt;/b&gt; 192.168.102.0/24&lt;/font&gt;" style="text;html=1;strokeColor=none;fillColor=none;align=center;verticalAlign=middle;whiteSpace=wrap;rounded=0;dashed=1;" parent="WIyWlLk6GJQsqaUBKTNV-1" vertex="1">
          <mxGeometry x="-37.5" y="755" width="120" height="20" as="geometry" />
        </mxCell>
        <mxCell id="5QetswFkg2Cd5uMD2sd_-70" value="&lt;span style=&quot;font-size: 10px&quot;&gt;почтовый сервер&lt;/span&gt;" style="text;html=1;strokeColor=none;fillColor=none;align=center;verticalAlign=middle;whiteSpace=wrap;rounded=0;dashed=1;" parent="WIyWlLk6GJQsqaUBKTNV-1" vertex="1">
          <mxGeometry x="-36.5" y="845" width="120" height="20" as="geometry" />
        </mxCell>
        <mxCell id="5QetswFkg2Cd5uMD2sd_-71" value="" style="pointerEvents=1;shadow=0;dashed=0;html=1;strokeColor=none;fillColor=#505050;labelPosition=center;verticalLabelPosition=bottom;verticalAlign=top;outlineConnect=0;align=center;shape=mxgraph.office.servers.exchange_mailbox_server;labelBackgroundColor=none;" parent="WIyWlLk6GJQsqaUBKTNV-1" vertex="1">
          <mxGeometry y="786" width="57" height="59" as="geometry" />
        </mxCell>
        <mxCell id="5QetswFkg2Cd5uMD2sd_-72" value="внешний&lt;br&gt;почтовый сервер" style="pointerEvents=1;shadow=0;dashed=0;html=1;strokeColor=none;fillColor=#505050;labelPosition=center;verticalLabelPosition=bottom;verticalAlign=top;outlineConnect=0;align=center;shape=mxgraph.office.servers.exchange_mailbox_server;labelBackgroundColor=none;" parent="WIyWlLk6GJQsqaUBKTNV-1" vertex="1">
          <mxGeometry x="-620" y="800" width="57" height="59" as="geometry" />
        </mxCell>
        <mxCell id="5QetswFkg2Cd5uMD2sd_-122" style="edgeStyle=orthogonalEdgeStyle;rounded=1;orthogonalLoop=1;jettySize=auto;html=1;startArrow=none;startFill=0;endArrow=classic;endFill=1;strokeWidth=1;" parent="WIyWlLk6GJQsqaUBKTNV-1" source="5QetswFkg2Cd5uMD2sd_-73" target="5QetswFkg2Cd5uMD2sd_-43" edge="1">
          <mxGeometry relative="1" as="geometry">
            <mxPoint x="190" y="458" as="targetPoint" />
            <Array as="points">
              <mxPoint x="-80" y="612" />
              <mxPoint x="-80" y="460" />
            </Array>
          </mxGeometry>
        </mxCell>
        <mxCell id="5QetswFkg2Cd5uMD2sd_-73" value="" style="pointerEvents=1;shadow=0;dashed=0;html=1;strokeColor=#000000;fillColor=#505050;labelPosition=center;verticalLabelPosition=bottom;verticalAlign=top;outlineConnect=0;align=center;shape=mxgraph.office.devices.workstation;labelBackgroundColor=none;" parent="WIyWlLk6GJQsqaUBKTNV-1" vertex="1">
          <mxGeometry x="-173" y="584" width="53" height="56" as="geometry" />
        </mxCell>
        <mxCell id="5QetswFkg2Cd5uMD2sd_-114" style="edgeStyle=orthogonalEdgeStyle;rounded=1;orthogonalLoop=1;jettySize=auto;html=1;entryX=0.367;entryY=1.013;entryDx=0;entryDy=0;startArrow=none;startFill=0;endArrow=classic;endFill=1;strokeWidth=1;entryPerimeter=0;" parent="WIyWlLk6GJQsqaUBKTNV-1" source="5QetswFkg2Cd5uMD2sd_-75" target="5QetswFkg2Cd5uMD2sd_-124" edge="1">
          <mxGeometry relative="1" as="geometry">
            <Array as="points">
              <mxPoint x="330" y="650" />
              <mxPoint x="330" y="950" />
              <mxPoint x="-30" y="950" />
              <mxPoint x="-30" y="893" />
            </Array>
          </mxGeometry>
        </mxCell>
        <mxCell id="5QetswFkg2Cd5uMD2sd_-140" value="MAPI&lt;br&gt;EWS&lt;br&gt;ActiveSync" style="text;html=1;align=center;verticalAlign=middle;resizable=0;points=[];labelBackgroundColor=#ffffff;fontSize=9;" parent="5QetswFkg2Cd5uMD2sd_-114" vertex="1" connectable="0">
          <mxGeometry x="0.8487" y="2" relative="1" as="geometry">
            <mxPoint x="214.37" y="-102" as="offset" />
          </mxGeometry>
        </mxCell>
        <mxCell id="5QetswFkg2Cd5uMD2sd_-80" value="Администраторы" style="pointerEvents=1;shadow=0;dashed=0;html=1;strokeColor=none;fillColor=#505050;labelPosition=center;verticalLabelPosition=bottom;verticalAlign=top;outlineConnect=0;align=center;shape=mxgraph.office.users.users_two;fillColor=#DA4026;labelBackgroundColor=none;" parent="WIyWlLk6GJQsqaUBKTNV-1" vertex="1">
          <mxGeometry x="370" y="374.32000000000005" width="57" height="43" as="geometry" />
        </mxCell>
        <mxCell id="5QetswFkg2Cd5uMD2sd_-83" value="Прочие&lt;br&gt;работники" style="pointerEvents=1;shadow=0;dashed=0;html=1;strokeColor=none;fillColor=#505050;labelPosition=center;verticalLabelPosition=bottom;verticalAlign=top;outlineConnect=0;align=center;shape=mxgraph.office.users.users_two;labelBackgroundColor=none;" parent="WIyWlLk6GJQsqaUBKTNV-1" vertex="1">
          <mxGeometry x="489.23" y="372.82000000000005" width="57" height="43" as="geometry" />
        </mxCell>
        <mxCell id="5QetswFkg2Cd5uMD2sd_-84" value="Операторы&lt;br&gt;АРМ КБР-Н" style="pointerEvents=1;shadow=0;dashed=0;html=1;strokeColor=none;fillColor=#505050;labelPosition=center;verticalLabelPosition=bottom;verticalAlign=top;outlineConnect=0;align=center;shape=mxgraph.office.users.users_two;fillColor=#2072B8;labelBackgroundColor=none;" parent="WIyWlLk6GJQsqaUBKTNV-1" vertex="1">
          <mxGeometry x="386.45" y="580" width="57" height="43" as="geometry" />
        </mxCell>
        <mxCell id="5QetswFkg2Cd5uMD2sd_-119" style="edgeStyle=orthogonalEdgeStyle;rounded=1;orthogonalLoop=1;jettySize=auto;html=1;startArrow=none;startFill=0;endArrow=classic;endFill=1;strokeWidth=1;" parent="WIyWlLk6GJQsqaUBKTNV-1" source="5QetswFkg2Cd5uMD2sd_-86" target="H7vkgc4rldZ32Lxg7ZXF-38" edge="1">
          <mxGeometry relative="1" as="geometry">
            <mxPoint x="240" y="437.6470588235293" as="targetPoint" />
            <Array as="points">
              <mxPoint x="518" y="570" />
              <mxPoint x="340" y="570" />
              <mxPoint x="340" y="700" />
              <mxPoint x="-275" y="700" />
            </Array>
          </mxGeometry>
        </mxCell>
        <mxCell id="5QetswFkg2Cd5uMD2sd_-137" value="SQLNet/1525" style="text;html=1;align=center;verticalAlign=middle;resizable=0;points=[];labelBackgroundColor=#ffffff;fontSize=9;" parent="5QetswFkg2Cd5uMD2sd_-119" vertex="1" connectable="0">
          <mxGeometry x="-0.7214" relative="1" as="geometry">
            <mxPoint x="-199" y="-47" as="offset" />
          </mxGeometry>
        </mxCell>
        <mxCell id="5QetswFkg2Cd5uMD2sd_-86" value="Операторы&lt;br&gt;АРМ Сигнатура" style="pointerEvents=1;shadow=0;dashed=0;html=1;strokeColor=none;fillColor=#505050;labelPosition=center;verticalLabelPosition=bottom;verticalAlign=top;outlineConnect=0;align=center;shape=mxgraph.office.users.users_two;fillColor=#2072B8;labelBackgroundColor=none;" parent="WIyWlLk6GJQsqaUBKTNV-1" vertex="1">
          <mxGeometry x="489.22999999999996" y="580" width="57" height="43" as="geometry" />
        </mxCell>
        <mxCell id="5QetswFkg2Cd5uMD2sd_-96" style="edgeStyle=orthogonalEdgeStyle;rounded=1;orthogonalLoop=1;jettySize=auto;html=1;entryX=0.75;entryY=1;entryDx=0;entryDy=0;startArrow=none;startFill=0;endArrow=classic;endFill=1;strokeWidth=1;" parent="WIyWlLk6GJQsqaUBKTNV-1" source="5QetswFkg2Cd5uMD2sd_-95" target="5QetswFkg2Cd5uMD2sd_-75" edge="1">
          <mxGeometry relative="1" as="geometry">
            <Array as="points">
              <mxPoint x="532" y="960" />
            </Array>
          </mxGeometry>
        </mxCell>
        <mxCell id="5QetswFkg2Cd5uMD2sd_-139" value="RDP/3389" style="text;html=1;align=center;verticalAlign=middle;resizable=0;points=[];labelBackgroundColor=#ffffff;fontSize=9;" parent="5QetswFkg2Cd5uMD2sd_-96" vertex="1" connectable="0">
          <mxGeometry x="-0.9612" y="2" relative="1" as="geometry">
            <mxPoint x="25" y="2" as="offset" />
          </mxGeometry>
        </mxCell>
        <mxCell id="5QetswFkg2Cd5uMD2sd_-145" style="edgeStyle=orthogonalEdgeStyle;rounded=1;orthogonalLoop=1;jettySize=auto;html=1;startArrow=none;startFill=0;endArrow=classic;endFill=1;strokeWidth=1;fontSize=9;entryX=0.365;entryY=1.011;entryDx=0;entryDy=0;entryPerimeter=0;" parent="WIyWlLk6GJQsqaUBKTNV-1" source="5QetswFkg2Cd5uMD2sd_-95" target="5QetswFkg2Cd5uMD2sd_-124" edge="1">
          <mxGeometry relative="1" as="geometry">
            <Array as="points">
              <mxPoint x="-40" y="949" />
              <mxPoint x="-40" y="910" />
              <mxPoint x="-38" y="910" />
            </Array>
            <mxPoint x="-40" y="961.6666666666666" as="targetPoint" />
          </mxGeometry>
        </mxCell>
        <mxCell id="5QetswFkg2Cd5uMD2sd_-146" value="POP3/110" style="text;html=1;align=center;verticalAlign=middle;resizable=0;points=[];labelBackgroundColor=#ffffff;fontSize=9;" parent="5QetswFkg2Cd5uMD2sd_-145" vertex="1" connectable="0">
          <mxGeometry x="-0.2769" y="2" relative="1" as="geometry">
            <mxPoint x="-118" y="2" as="offset" />
          </mxGeometry>
        </mxCell>
        <mxCell id="5QetswFkg2Cd5uMD2sd_-95" value="Удаленные&lt;br&gt;работники Банка" style="pointerEvents=1;shadow=0;dashed=0;html=1;strokeColor=none;fillColor=#505050;labelPosition=center;verticalLabelPosition=bottom;verticalAlign=top;outlineConnect=0;align=center;shape=mxgraph.office.users.user_external;labelBackgroundColor=none;" parent="WIyWlLk6GJQsqaUBKTNV-1" vertex="1">
          <mxGeometry x="-514.84" y="930" width="44.84" height="38" as="geometry" />
        </mxCell>
        <mxCell id="5QetswFkg2Cd5uMD2sd_-98" value="&lt;font style=&quot;font-size: 10px&quot;&gt;&lt;b&gt;APP&lt;/b&gt; 192.168.31.0/24&lt;/font&gt;" style="text;html=1;strokeColor=none;fillColor=none;align=center;verticalAlign=middle;whiteSpace=wrap;rounded=0;dashed=1;" parent="WIyWlLk6GJQsqaUBKTNV-1" vertex="1">
          <mxGeometry x="-210.5" y="550" width="120" height="20" as="geometry" />
        </mxCell>
        <mxCell id="5QetswFkg2Cd5uMD2sd_-99" value="&lt;span style=&quot;font-size: 10px&quot;&gt;АРМ КБР-Н&lt;/span&gt;" style="text;html=1;strokeColor=none;fillColor=none;align=center;verticalAlign=middle;whiteSpace=wrap;rounded=0;dashed=1;" parent="WIyWlLk6GJQsqaUBKTNV-1" vertex="1">
          <mxGeometry x="-209.5" y="640" width="120" height="20" as="geometry" />
        </mxCell>
        <mxCell id="5QetswFkg2Cd5uMD2sd_-120" style="edgeStyle=orthogonalEdgeStyle;rounded=1;orthogonalLoop=1;jettySize=auto;html=1;startArrow=classic;startFill=1;endArrow=none;endFill=0;strokeWidth=1;" parent="WIyWlLk6GJQsqaUBKTNV-1" source="5QetswFkg2Cd5uMD2sd_-107" target="5QetswFkg2Cd5uMD2sd_-43" edge="1">
          <mxGeometry relative="1" as="geometry">
            <Array as="points">
              <mxPoint x="130" y="612" />
              <mxPoint x="130" y="470" />
            </Array>
          </mxGeometry>
        </mxCell>
        <mxCell id="5QetswFkg2Cd5uMD2sd_-138" value="RSync/873" style="text;html=1;align=center;verticalAlign=middle;resizable=0;points=[];labelBackgroundColor=#ffffff;fontSize=9;" parent="5QetswFkg2Cd5uMD2sd_-120" vertex="1" connectable="0">
          <mxGeometry x="-0.2197" y="4" relative="1" as="geometry">
            <mxPoint x="-81" y="-113" as="offset" />
          </mxGeometry>
        </mxCell>
        <mxCell id="5QetswFkg2Cd5uMD2sd_-148" value="TCP/9999" style="text;html=1;align=center;verticalAlign=middle;resizable=0;points=[];labelBackgroundColor=#ffffff;fontSize=9;" parent="5QetswFkg2Cd5uMD2sd_-120" vertex="1" connectable="0">
          <mxGeometry x="-0.0689" y="1" relative="1" as="geometry">
            <mxPoint as="offset" />
          </mxGeometry>
        </mxCell>
        <mxCell id="5QetswFkg2Cd5uMD2sd_-106" value="" style="rounded=0;whiteSpace=wrap;html=1;fillColor=none;dashed=1;strokeWidth=1;perimeterSpacing=1;strokeColor=#000000;" parent="WIyWlLk6GJQsqaUBKTNV-1" vertex="1">
          <mxGeometry x="-29.5" y="550" width="119" height="110" as="geometry" />
        </mxCell>
        <mxCell id="5QetswFkg2Cd5uMD2sd_-107" value="" style="pointerEvents=1;shadow=0;dashed=0;html=1;strokeColor=none;fillColor=#505050;labelPosition=center;verticalLabelPosition=bottom;verticalAlign=top;outlineConnect=0;align=center;shape=mxgraph.office.devices.workstation;labelBackgroundColor=none;" parent="WIyWlLk6GJQsqaUBKTNV-1" vertex="1">
          <mxGeometry x="7" y="584" width="53" height="56" as="geometry" />
        </mxCell>
        <mxCell id="5QetswFkg2Cd5uMD2sd_-108" value="&lt;font style=&quot;font-size: 10px&quot;&gt;&lt;b&gt;APP&lt;/b&gt; 192.168.32.0/24&lt;/font&gt;" style="text;html=1;strokeColor=none;fillColor=none;align=center;verticalAlign=middle;whiteSpace=wrap;rounded=0;dashed=1;" parent="WIyWlLk6GJQsqaUBKTNV-1" vertex="1">
          <mxGeometry x="-30.5" y="550" width="120" height="20" as="geometry" />
        </mxCell>
        <mxCell id="5QetswFkg2Cd5uMD2sd_-109" value="&lt;span style=&quot;font-size: 10px&quot;&gt;АРМ Сигнатура&lt;/span&gt;" style="text;html=1;strokeColor=none;fillColor=none;align=center;verticalAlign=middle;whiteSpace=wrap;rounded=0;dashed=1;" parent="WIyWlLk6GJQsqaUBKTNV-1" vertex="1">
          <mxGeometry x="-29.5" y="640" width="120" height="20" as="geometry" />
        </mxCell>
        <mxCell id="5QetswFkg2Cd5uMD2sd_-111" value="" style="pointerEvents=1;shadow=0;dashed=0;html=1;strokeColor=none;fillColor=#505050;labelPosition=center;verticalLabelPosition=bottom;verticalAlign=top;outlineConnect=0;align=center;shape=mxgraph.office.servers.mainframe_host;labelBackgroundColor=none;" parent="WIyWlLk6GJQsqaUBKTNV-1" vertex="1">
          <mxGeometry x="-742" y="580.5" width="44" height="42" as="geometry" />
        </mxCell>
        <mxCell id="5QetswFkg2Cd5uMD2sd_-113" style="edgeStyle=orthogonalEdgeStyle;rounded=1;orthogonalLoop=1;jettySize=auto;html=1;startArrow=none;startFill=0;endArrow=classic;endFill=1;strokeWidth=1;" parent="WIyWlLk6GJQsqaUBKTNV-1" source="5QetswFkg2Cd5uMD2sd_-110" target="5QetswFkg2Cd5uMD2sd_-111" edge="1">
          <mxGeometry relative="1" as="geometry" />
        </mxCell>
        <mxCell id="5QetswFkg2Cd5uMD2sd_-110" value="VPN-туннель" style="pointerEvents=1;shadow=0;dashed=0;html=1;strokeColor=none;fillColor=#505050;labelPosition=center;verticalLabelPosition=bottom;verticalAlign=top;outlineConnect=0;align=center;shape=mxgraph.office.servers.tunnel_straight;labelBackgroundColor=none;" parent="WIyWlLk6GJQsqaUBKTNV-1" vertex="1">
          <mxGeometry x="-679" y="591.5" width="108.5" height="20" as="geometry" />
        </mxCell>
        <mxCell id="5QetswFkg2Cd5uMD2sd_-125" value="&lt;span style=&quot;font-size: 11px&quot;&gt;Сегменты критичных сервисов (промышленные)&lt;/span&gt;" style="text;html=1;strokeColor=none;fillColor=none;align=center;verticalAlign=middle;whiteSpace=wrap;rounded=0;dashed=1;" parent="WIyWlLk6GJQsqaUBKTNV-1" vertex="1">
          <mxGeometry x="-141" y="363.5" width="320" height="20" as="geometry" />
        </mxCell>
        <mxCell id="5QetswFkg2Cd5uMD2sd_-126" value="&lt;span style=&quot;font-size: 11px&quot;&gt;Сегменты внутренних сервисов (корпоративные)&lt;/span&gt;" style="text;html=1;strokeColor=none;fillColor=none;align=center;verticalAlign=middle;whiteSpace=wrap;rounded=0;dashed=1;" parent="WIyWlLk6GJQsqaUBKTNV-1" vertex="1">
          <mxGeometry x="-138" y="730" width="320" height="20" as="geometry" />
        </mxCell>
        <mxCell id="5QetswFkg2Cd5uMD2sd_-128" value="&lt;font style=&quot;font-size: 10px&quot;&gt;&lt;b&gt;DMZ&lt;/b&gt;&lt;/font&gt;" style="text;html=1;strokeColor=none;fillColor=none;align=center;verticalAlign=middle;whiteSpace=wrap;rounded=0;dashed=1;" parent="WIyWlLk6GJQsqaUBKTNV-1" vertex="1">
          <mxGeometry x="-780" y="546.5" width="41" height="20" as="geometry" />
        </mxCell>
        <mxCell id="5QetswFkg2Cd5uMD2sd_-129" value="&lt;span style=&quot;font-size: 10px&quot;&gt;сервер Банка России&lt;/span&gt;" style="text;html=1;strokeColor=none;fillColor=none;align=center;verticalAlign=middle;whiteSpace=wrap;rounded=0;dashed=1;" parent="WIyWlLk6GJQsqaUBKTNV-1" vertex="1">
          <mxGeometry x="-779" y="636.5" width="120" height="20" as="geometry" />
        </mxCell>
        <mxCell id="5QetswFkg2Cd5uMD2sd_-135" value="Клиент" style="pointerEvents=1;shadow=0;dashed=0;html=1;strokeColor=none;fillColor=#505050;labelPosition=center;verticalLabelPosition=bottom;verticalAlign=top;outlineConnect=0;align=center;shape=mxgraph.office.users.mobile_user;labelBackgroundColor=none;" parent="WIyWlLk6GJQsqaUBKTNV-1" vertex="1">
          <mxGeometry x="-514.84" y="422.91" width="45.11" height="42.82" as="geometry" />
        </mxCell>
        <mxCell id="H7vkgc4rldZ32Lxg7ZXF-0" value="" style="rounded=0;whiteSpace=wrap;html=1;fillColor=none;dashed=1;strokeWidth=1;perimeterSpacing=1;strokeColor=#000000;" vertex="1" parent="WIyWlLk6GJQsqaUBKTNV-1">
          <mxGeometry x="363.45000000000005" y="710" width="119" height="110" as="geometry" />
        </mxCell>
        <mxCell id="H7vkgc4rldZ32Lxg7ZXF-1" value="" style="pointerEvents=1;shadow=0;dashed=0;html=1;strokeColor=none;fillColor=#505050;labelPosition=center;verticalLabelPosition=bottom;verticalAlign=top;outlineConnect=0;align=center;shape=mxgraph.office.servers.mainframe_host;labelBackgroundColor=none;" vertex="1" parent="WIyWlLk6GJQsqaUBKTNV-1">
          <mxGeometry x="370.00000000000006" y="719" width="44" height="42" as="geometry" />
        </mxCell>
        <mxCell id="H7vkgc4rldZ32Lxg7ZXF-3" value="" style="pointerEvents=1;shadow=0;dashed=0;html=1;strokeColor=none;fillColor=#505050;labelPosition=center;verticalLabelPosition=bottom;verticalAlign=top;outlineConnect=0;align=center;shape=mxgraph.office.servers.mainframe_host;labelBackgroundColor=none;" vertex="1" parent="WIyWlLk6GJQsqaUBKTNV-1">
          <mxGeometry x="434.45000000000005" y="719" width="44" height="42" as="geometry" />
        </mxCell>
        <mxCell id="H7vkgc4rldZ32Lxg7ZXF-71" style="edgeStyle=orthogonalEdgeStyle;rounded=0;orthogonalLoop=1;jettySize=auto;html=1;entryX=1;entryY=0.5;entryDx=0;entryDy=0;entryPerimeter=0;strokeColor=#000000;" edge="1" parent="WIyWlLk6GJQsqaUBKTNV-1" source="H7vkgc4rldZ32Lxg7ZXF-7" target="H7vkgc4rldZ32Lxg7ZXF-31">
          <mxGeometry relative="1" as="geometry">
            <Array as="points">
              <mxPoint x="423" y="1010" />
              <mxPoint x="-210" y="1010" />
            </Array>
          </mxGeometry>
        </mxCell>
        <mxCell id="H7vkgc4rldZ32Lxg7ZXF-72" style="edgeStyle=orthogonalEdgeStyle;rounded=0;orthogonalLoop=1;jettySize=auto;html=1;entryX=1;entryY=0.5;entryDx=0;entryDy=0;entryPerimeter=0;strokeColor=#000000;" edge="1" parent="WIyWlLk6GJQsqaUBKTNV-1" source="H7vkgc4rldZ32Lxg7ZXF-7" target="H7vkgc4rldZ32Lxg7ZXF-66">
          <mxGeometry relative="1" as="geometry">
            <Array as="points">
              <mxPoint x="670" y="876" />
              <mxPoint x="670" y="310" />
              <mxPoint x="39" y="310" />
            </Array>
          </mxGeometry>
        </mxCell>
        <mxCell id="H7vkgc4rldZ32Lxg7ZXF-73" style="edgeStyle=orthogonalEdgeStyle;rounded=0;orthogonalLoop=1;jettySize=auto;html=1;entryX=0.5;entryY=1;entryDx=0;entryDy=0;entryPerimeter=0;strokeColor=#000000;" edge="1" parent="WIyWlLk6GJQsqaUBKTNV-1" source="H7vkgc4rldZ32Lxg7ZXF-7" target="H7vkgc4rldZ32Lxg7ZXF-41">
          <mxGeometry relative="1" as="geometry" />
        </mxCell>
        <mxCell id="H7vkgc4rldZ32Lxg7ZXF-7" value="" style="fontColor=#0066CC;verticalAlign=top;verticalLabelPosition=bottom;labelPosition=center;align=center;html=1;outlineConnect=0;fillColor=#CCCCCC;strokeColor=#6881B3;gradientColor=none;gradientDirection=north;strokeWidth=2;shape=mxgraph.networks.router;" vertex="1" parent="WIyWlLk6GJQsqaUBKTNV-1">
          <mxGeometry x="383.72" y="862.5" width="78.45" height="27.5" as="geometry" />
        </mxCell>
        <mxCell id="H7vkgc4rldZ32Lxg7ZXF-8" value="" style="points=[[0.13,0.02,0],[0.5,0,0],[0.87,0.02,0],[0.885,0.4,0],[0.985,0.985,0],[0.5,1,0],[0.015,0.985,0],[0.115,0.4,0]];verticalLabelPosition=bottom;sketch=0;html=1;verticalAlign=top;aspect=fixed;align=center;pointerEvents=1;shape=mxgraph.cisco19.secure_endpoints;fillColor=#005073;strokeColor=none;" vertex="1" parent="WIyWlLk6GJQsqaUBKTNV-1">
          <mxGeometry x="389" y="476" width="50" height="35" as="geometry" />
        </mxCell>
        <mxCell id="H7vkgc4rldZ32Lxg7ZXF-9" value="" style="points=[[0.13,0.02,0],[0.5,0,0],[0.87,0.02,0],[0.885,0.4,0],[0.985,0.985,0],[0.5,1,0],[0.015,0.985,0],[0.115,0.4,0]];verticalLabelPosition=bottom;sketch=0;html=1;verticalAlign=top;aspect=fixed;align=center;pointerEvents=1;shape=mxgraph.cisco19.secure_endpoints;fillColor=#005073;strokeColor=none;" vertex="1" parent="WIyWlLk6GJQsqaUBKTNV-1">
          <mxGeometry x="514.5" y="476" width="50" height="35" as="geometry" />
        </mxCell>
        <mxCell id="H7vkgc4rldZ32Lxg7ZXF-61" style="edgeStyle=orthogonalEdgeStyle;rounded=0;orthogonalLoop=1;jettySize=auto;html=1;entryX=0.05;entryY=0.05;entryDx=0;entryDy=0;entryPerimeter=0;strokeColor=#FF9429;" edge="1" parent="WIyWlLk6GJQsqaUBKTNV-1" source="H7vkgc4rldZ32Lxg7ZXF-10" target="H7vkgc4rldZ32Lxg7ZXF-7">
          <mxGeometry relative="1" as="geometry">
            <Array as="points">
              <mxPoint x="320" y="537" />
              <mxPoint x="320" y="864" />
            </Array>
          </mxGeometry>
        </mxCell>
        <mxCell id="H7vkgc4rldZ32Lxg7ZXF-10" value="" style="fontColor=#0066CC;verticalAlign=top;verticalLabelPosition=bottom;labelPosition=center;align=center;html=1;outlineConnect=0;fillColor=#CCCCCC;strokeColor=#6881B3;gradientColor=none;gradientDirection=north;strokeWidth=2;shape=mxgraph.networks.modem;" vertex="1" parent="WIyWlLk6GJQsqaUBKTNV-1">
          <mxGeometry x="374.95" y="523" width="80" height="27" as="geometry" />
        </mxCell>
        <mxCell id="H7vkgc4rldZ32Lxg7ZXF-60" style="edgeStyle=orthogonalEdgeStyle;rounded=0;orthogonalLoop=1;jettySize=auto;html=1;entryX=1;entryY=0.5;entryDx=0;entryDy=0;entryPerimeter=0;strokeColor=#479DFF;" edge="1" parent="WIyWlLk6GJQsqaUBKTNV-1" source="H7vkgc4rldZ32Lxg7ZXF-11" target="H7vkgc4rldZ32Lxg7ZXF-7">
          <mxGeometry relative="1" as="geometry">
            <Array as="points">
              <mxPoint x="580" y="876" />
            </Array>
          </mxGeometry>
        </mxCell>
        <mxCell id="H7vkgc4rldZ32Lxg7ZXF-11" value="" style="fontColor=#0066CC;verticalAlign=top;verticalLabelPosition=bottom;labelPosition=center;align=center;html=1;outlineConnect=0;fillColor=#CCCCCC;strokeColor=#6881B3;gradientColor=none;gradientDirection=north;strokeWidth=2;shape=mxgraph.networks.modem;" vertex="1" parent="WIyWlLk6GJQsqaUBKTNV-1">
          <mxGeometry x="499.11" y="523" width="80.77" height="27" as="geometry" />
        </mxCell>
        <mxCell id="H7vkgc4rldZ32Lxg7ZXF-58" value="" style="edgeStyle=orthogonalEdgeStyle;rounded=0;orthogonalLoop=1;jettySize=auto;html=1;" edge="1" parent="WIyWlLk6GJQsqaUBKTNV-1" source="H7vkgc4rldZ32Lxg7ZXF-12" target="H7vkgc4rldZ32Lxg7ZXF-7">
          <mxGeometry relative="1" as="geometry" />
        </mxCell>
        <mxCell id="H7vkgc4rldZ32Lxg7ZXF-12" value="" style="fontColor=#0066CC;verticalAlign=top;verticalLabelPosition=bottom;labelPosition=center;align=center;html=1;outlineConnect=0;fillColor=#CCCCCC;strokeColor=#6881B3;gradientColor=none;gradientDirection=north;strokeWidth=2;shape=mxgraph.networks.modem;" vertex="1" parent="WIyWlLk6GJQsqaUBKTNV-1">
          <mxGeometry x="385.47" y="810" width="74.95" height="20" as="geometry" />
        </mxCell>
        <mxCell id="H7vkgc4rldZ32Lxg7ZXF-62" style="edgeStyle=orthogonalEdgeStyle;rounded=0;orthogonalLoop=1;jettySize=auto;html=1;entryX=0.1;entryY=1;entryDx=0;entryDy=0;entryPerimeter=0;strokeColor=#660066;" edge="1" parent="WIyWlLk6GJQsqaUBKTNV-1" source="H7vkgc4rldZ32Lxg7ZXF-25" target="H7vkgc4rldZ32Lxg7ZXF-7">
          <mxGeometry relative="1" as="geometry">
            <Array as="points">
              <mxPoint x="-38" y="910" />
              <mxPoint x="392" y="910" />
              <mxPoint x="392" y="890" />
            </Array>
          </mxGeometry>
        </mxCell>
        <mxCell id="H7vkgc4rldZ32Lxg7ZXF-25" value="" style="fontColor=#0066CC;verticalAlign=top;verticalLabelPosition=bottom;labelPosition=center;align=center;html=1;outlineConnect=0;fillColor=#CCCCCC;strokeColor=#6881B3;gradientColor=none;gradientDirection=north;strokeWidth=2;shape=mxgraph.networks.modem;" vertex="1" parent="WIyWlLk6GJQsqaUBKTNV-1">
          <mxGeometry x="-75" y="880" width="74.95" height="25" as="geometry" />
        </mxCell>
        <mxCell id="H7vkgc4rldZ32Lxg7ZXF-34" style="edgeStyle=orthogonalEdgeStyle;rounded=0;orthogonalLoop=1;jettySize=auto;html=1;" edge="1" parent="WIyWlLk6GJQsqaUBKTNV-1" source="H7vkgc4rldZ32Lxg7ZXF-30" target="5QetswFkg2Cd5uMD2sd_-72">
          <mxGeometry relative="1" as="geometry" />
        </mxCell>
        <mxCell id="H7vkgc4rldZ32Lxg7ZXF-30" value="" style="fontColor=#0066CC;verticalAlign=top;verticalLabelPosition=bottom;labelPosition=center;align=center;html=1;outlineConnect=0;fillColor=#CCCCCC;strokeColor=#6881B3;gradientColor=none;gradientDirection=north;strokeWidth=2;shape=mxgraph.networks.router;" vertex="1" parent="WIyWlLk6GJQsqaUBKTNV-1">
          <mxGeometry x="-339" y="890" width="89" height="20" as="geometry" />
        </mxCell>
        <mxCell id="H7vkgc4rldZ32Lxg7ZXF-33" style="edgeStyle=orthogonalEdgeStyle;rounded=0;orthogonalLoop=1;jettySize=auto;html=1;exitX=0;exitY=0.5;exitDx=0;exitDy=0;exitPerimeter=0;" edge="1" parent="WIyWlLk6GJQsqaUBKTNV-1" source="H7vkgc4rldZ32Lxg7ZXF-31" target="H7vkgc4rldZ32Lxg7ZXF-30">
          <mxGeometry relative="1" as="geometry" />
        </mxCell>
        <mxCell id="H7vkgc4rldZ32Lxg7ZXF-31" value="" style="sketch=0;points=[[0.015,0.015,0],[0.985,0.015,0],[0.985,0.985,0],[0.015,0.985,0],[0.25,0,0],[0.5,0,0],[0.75,0,0],[1,0.25,0],[1,0.5,0],[1,0.75,0],[0.75,1,0],[0.5,1,0],[0.25,1,0],[0,0.75,0],[0,0.5,0],[0,0.25,0]];verticalLabelPosition=bottom;html=1;verticalAlign=top;aspect=fixed;align=center;pointerEvents=1;shape=mxgraph.cisco19.rect;prIcon=firewall;fillColor=#FAFAFA;strokeColor=#005073;" vertex="1" parent="WIyWlLk6GJQsqaUBKTNV-1">
          <mxGeometry x="-284.5" y="990" width="64" height="50" as="geometry" />
        </mxCell>
        <mxCell id="H7vkgc4rldZ32Lxg7ZXF-44" style="edgeStyle=orthogonalEdgeStyle;rounded=0;orthogonalLoop=1;jettySize=auto;html=1;entryX=0;entryY=0.5;entryDx=0;entryDy=0;" edge="1" parent="WIyWlLk6GJQsqaUBKTNV-1" source="H7vkgc4rldZ32Lxg7ZXF-38" target="5QetswFkg2Cd5uMD2sd_-46">
          <mxGeometry relative="1" as="geometry">
            <Array as="points">
              <mxPoint x="-275" y="441" />
            </Array>
          </mxGeometry>
        </mxCell>
        <mxCell id="H7vkgc4rldZ32Lxg7ZXF-52" style="edgeStyle=orthogonalEdgeStyle;rounded=0;orthogonalLoop=1;jettySize=auto;html=1;" edge="1" parent="WIyWlLk6GJQsqaUBKTNV-1" source="H7vkgc4rldZ32Lxg7ZXF-38" target="5QetswFkg2Cd5uMD2sd_-43">
          <mxGeometry relative="1" as="geometry">
            <Array as="points">
              <mxPoint x="-281" y="670" />
              <mxPoint x="290" y="670" />
              <mxPoint x="290" y="450" />
            </Array>
          </mxGeometry>
        </mxCell>
        <mxCell id="H7vkgc4rldZ32Lxg7ZXF-65" style="edgeStyle=orthogonalEdgeStyle;rounded=0;orthogonalLoop=1;jettySize=auto;html=1;strokeColor=#FF3333;" edge="1" parent="WIyWlLk6GJQsqaUBKTNV-1" source="H7vkgc4rldZ32Lxg7ZXF-38">
          <mxGeometry relative="1" as="geometry">
            <mxPoint x="380" y="860" as="targetPoint" />
            <Array as="points">
              <mxPoint x="-360" y="602" />
              <mxPoint x="-360" y="860" />
              <mxPoint x="392" y="860" />
            </Array>
          </mxGeometry>
        </mxCell>
        <mxCell id="H7vkgc4rldZ32Lxg7ZXF-38" value="" style="fontColor=#0066CC;verticalAlign=top;verticalLabelPosition=bottom;labelPosition=center;align=center;html=1;outlineConnect=0;fillColor=#CCCCCC;strokeColor=#6881B3;gradientColor=none;gradientDirection=north;strokeWidth=2;shape=mxgraph.networks.modem;" vertex="1" parent="WIyWlLk6GJQsqaUBKTNV-1">
          <mxGeometry x="-312.47" y="589" width="62.47" height="25" as="geometry" />
        </mxCell>
        <mxCell id="H7vkgc4rldZ32Lxg7ZXF-40" style="edgeStyle=orthogonalEdgeStyle;rounded=0;orthogonalLoop=1;jettySize=auto;html=1;exitX=0;exitY=0.5;exitDx=0;exitDy=0;exitPerimeter=0;" edge="1" parent="WIyWlLk6GJQsqaUBKTNV-1" source="H7vkgc4rldZ32Lxg7ZXF-41" target="H7vkgc4rldZ32Lxg7ZXF-39">
          <mxGeometry relative="1" as="geometry" />
        </mxCell>
        <mxCell id="H7vkgc4rldZ32Lxg7ZXF-41" value="" style="sketch=0;points=[[0.015,0.015,0],[0.985,0.015,0],[0.985,0.985,0],[0.015,0.985,0],[0.25,0,0],[0.5,0,0],[0.75,0,0],[1,0.25,0],[1,0.5,0],[1,0.75,0],[0.75,1,0],[0.5,1,0],[0.25,1,0],[0,0.75,0],[0,0.5,0],[0,0.25,0]];verticalLabelPosition=bottom;html=1;verticalAlign=top;aspect=fixed;align=center;pointerEvents=1;shape=mxgraph.cisco19.rect;prIcon=firewall;fillColor=#FAFAFA;strokeColor=#005073;" vertex="1" parent="WIyWlLk6GJQsqaUBKTNV-1">
          <mxGeometry x="-484" y="684" width="64" height="50" as="geometry" />
        </mxCell>
        <mxCell id="H7vkgc4rldZ32Lxg7ZXF-43" style="edgeStyle=orthogonalEdgeStyle;rounded=0;orthogonalLoop=1;jettySize=auto;html=1;exitX=0;exitY=0.5;exitDx=0;exitDy=0;exitPerimeter=0;" edge="1" parent="WIyWlLk6GJQsqaUBKTNV-1" source="H7vkgc4rldZ32Lxg7ZXF-39" target="5QetswFkg2Cd5uMD2sd_-110">
          <mxGeometry relative="1" as="geometry" />
        </mxCell>
        <mxCell id="H7vkgc4rldZ32Lxg7ZXF-39" value="" style="fontColor=#0066CC;verticalAlign=top;verticalLabelPosition=bottom;labelPosition=center;align=center;html=1;outlineConnect=0;fillColor=#CCCCCC;strokeColor=#6881B3;gradientColor=none;gradientDirection=north;strokeWidth=2;shape=mxgraph.networks.router;" vertex="1" parent="WIyWlLk6GJQsqaUBKTNV-1">
          <mxGeometry x="-550" y="591.5" width="89" height="20" as="geometry" />
        </mxCell>
        <mxCell id="H7vkgc4rldZ32Lxg7ZXF-53" value="&lt;span style=&quot;font-size: 13.5pt ; line-height: 115% ; font-family: &amp;#34;calibri&amp;#34; , &amp;#34;sans-serif&amp;#34; ; color: black&quot;&gt;Система управления &lt;br&gt;&lt;span style=&quot;color: rgb(0 , 0 , 0) ; font-family: &amp;#34;helvetica&amp;#34; ; font-size: 12px ; text-align: center ; background-color: rgb(248 , 249 , 250)&quot;&gt;NAC&lt;/span&gt;&lt;br&gt;&lt;/span&gt;" style="text;whiteSpace=wrap;html=1;" vertex="1" parent="WIyWlLk6GJQsqaUBKTNV-1">
          <mxGeometry x="350" y="760" width="50" height="60" as="geometry" />
        </mxCell>
        <mxCell id="H7vkgc4rldZ32Lxg7ZXF-54" value="&lt;span style=&quot;font-size: 13.5pt ; line-height: 115% ; font-family: &amp;#34;calibri&amp;#34; , &amp;#34;sans-serif&amp;#34; ; color: black&quot;&gt;Сервер политики &lt;br&gt;&lt;span style=&quot;color: rgb(0 , 0 , 0) ; font-family: &amp;#34;helvetica&amp;#34; ; font-size: 12px ; text-align: center ; background-color: rgb(248 , 249 , 250)&quot;&gt;NAC&lt;/span&gt;&lt;br&gt;&lt;/span&gt;" style="text;whiteSpace=wrap;html=1;" vertex="1" parent="WIyWlLk6GJQsqaUBKTNV-1">
          <mxGeometry x="454.49999999999994" y="761" width="60" height="40" as="geometry" />
        </mxCell>
        <mxCell id="H7vkgc4rldZ32Lxg7ZXF-74" value="" style="edgeStyle=orthogonalEdgeStyle;rounded=0;orthogonalLoop=1;jettySize=auto;html=1;strokeColor=#000000;" edge="1" parent="WIyWlLk6GJQsqaUBKTNV-1" source="H7vkgc4rldZ32Lxg7ZXF-66" target="H7vkgc4rldZ32Lxg7ZXF-67">
          <mxGeometry relative="1" as="geometry" />
        </mxCell>
        <mxCell id="H7vkgc4rldZ32Lxg7ZXF-66" value="" style="sketch=0;points=[[0.015,0.015,0],[0.985,0.015,0],[0.985,0.985,0],[0.015,0.985,0],[0.25,0,0],[0.5,0,0],[0.75,0,0],[1,0.25,0],[1,0.5,0],[1,0.75,0],[0.75,1,0],[0.5,1,0],[0.25,1,0],[0,0.75,0],[0,0.5,0],[0,0.25,0]];verticalLabelPosition=bottom;html=1;verticalAlign=top;aspect=fixed;align=center;pointerEvents=1;shape=mxgraph.cisco19.rect;prIcon=firewall;fillColor=#FAFAFA;strokeColor=#005073;" vertex="1" parent="WIyWlLk6GJQsqaUBKTNV-1">
          <mxGeometry x="-25" y="290" width="64" height="50" as="geometry" />
        </mxCell>
        <mxCell id="H7vkgc4rldZ32Lxg7ZXF-67" value="" style="fontColor=#0066CC;verticalAlign=top;verticalLabelPosition=bottom;labelPosition=center;align=center;html=1;outlineConnect=0;fillColor=#CCCCCC;strokeColor=#6881B3;gradientColor=none;gradientDirection=north;strokeWidth=2;shape=mxgraph.networks.router;" vertex="1" parent="WIyWlLk6GJQsqaUBKTNV-1">
          <mxGeometry x="-141" y="303.75" width="89" height="20" as="geometry" />
        </mxCell>
        <mxCell id="H7vkgc4rldZ32Lxg7ZXF-70" value="" style="edgeStyle=orthogonalEdgeStyle;rounded=0;orthogonalLoop=1;jettySize=auto;html=1;strokeColor=#FFFF00;entryX=0.95;entryY=0.05;entryDx=0;entryDy=0;entryPerimeter=0;" edge="1" parent="WIyWlLk6GJQsqaUBKTNV-1" source="H7vkgc4rldZ32Lxg7ZXF-68" target="H7vkgc4rldZ32Lxg7ZXF-7">
          <mxGeometry relative="1" as="geometry">
            <Array as="points">
              <mxPoint x="270" y="310" />
              <mxPoint x="640" y="310" />
              <mxPoint x="640" y="864" />
            </Array>
          </mxGeometry>
        </mxCell>
        <mxCell id="H7vkgc4rldZ32Lxg7ZXF-68" value="" style="fontColor=#0066CC;verticalAlign=top;verticalLabelPosition=bottom;labelPosition=center;align=center;html=1;outlineConnect=0;fillColor=#CCCCCC;strokeColor=#6881B3;gradientColor=none;gradientDirection=north;strokeWidth=2;shape=mxgraph.networks.modem;" vertex="1" parent="WIyWlLk6GJQsqaUBKTNV-1">
          <mxGeometry x="240" y="415.82" width="60" height="22.82" as="geometry" />
        </mxCell>
        <mxCell id="H7vkgc4rldZ32Lxg7ZXF-77" value="" style="endArrow=classic;startArrow=classic;html=1;rounded=0;strokeColor=#000000;" edge="1" parent="WIyWlLk6GJQsqaUBKTNV-1" target="H7vkgc4rldZ32Lxg7ZXF-3">
          <mxGeometry width="50" height="50" relative="1" as="geometry">
            <mxPoint x="412.16999999999996" y="750" as="sourcePoint" />
            <mxPoint x="462.16999999999996" y="700" as="targetPoint" />
          </mxGeometry>
        </mxCell>
      </root>
    </mxGraphModel>
  </diagram>
</mxfile>
